<svg width="7501" height="1252" viewBox="0 0 7501 1252" fill="none" xmlns="http://www.w3.org/2000/svg">
<g clip-path="url(#clip0_20099_30)">
<path d="M7202 1254.5C4801.33 1254.5 2401.67 1254.5 2 1254.5C2 837.167 2 419.833 2 2.5C2502.67 2.5 5003.33 2.5 7504 2.5C7504 419.833 7504 837.167 7504 1254.5C7403.67 1254.5 7303.33 1254.5 7202 1254.5ZM5081.73 815.131C5086.24 795.412 5090.74 775.69 5095.26 755.973C5108.07 700.075 5120.89 644.178 5133.72 588.285C5137.19 573.177 5140.73 558.084 5144.23 542.975C5150.2 542.975 5155.43 542.975 5161.66 542.975C5161.66 546.562 5161.72 549.814 5161.65 553.063C5161.23 574.006 5160.71 594.948 5160.35 615.893C5160.04 633.867 5159.85 651.844 5159.67 669.821C5159.2 717.087 5158.79 764.353 5158.31 811.618C5158.24 818.263 5157.79 824.904 5157.7 831.55C5157.59 839.077 5157.67 846.608 5157.67 853.877C5184.63 853.877 5210.41 853.877 5235.85 853.877C5235.85 720.274 5235.85 587.388 5235.85 454.492C5186.55 454.492 5137.75 454.492 5088.96 454.492C5065.4 556.821 5041.99 658.483 5018.49 760.574C5014.91 760.384 5012.08 760.233 5009.22 760.081C4985.67 657.801 4962.26 556.158 4938.85 454.504C4889.56 454.504 4840.81 454.504 4792.08 454.504C4792.08 588.074 4792.08 720.927 4792.08 854.036C4818.28 854.036 4844.07 854.036 4870.34 854.036C4870.34 851.863 4870.37 850.245 4870.33 848.629C4869.67 817.035 4868.71 785.444 4868.41 753.847C4867.93 704.869 4867.91 655.888 4867.63 606.908C4867.61 603.283 4866.86 599.662 4866.84 596.036C4866.75 578.483 4866.8 560.929 4866.8 542.989C4872.52 542.989 4877.72 542.989 4883.62 542.989C4907.57 646.979 4931.48 750.779 4955.24 853.965C4995.3 853.965 5033.81 853.965 5072.53 853.965C5075.56 841.205 5078.46 828.986 5081.73 815.131ZM2305.66 633.5C2305.66 677.374 2305.66 721.247 2305.66 764.793C2299.23 766.744 2296.32 765.361 2293.8 759.817C2274.99 718.406 2255.65 677.231 2236.62 635.917C2218.29 596.112 2200.16 556.209 2181.86 516.389C2172.31 495.621 2162.58 474.94 2153.05 454.47C2106.99 454.47 2061.56 454.47 2016.01 454.47C2016.01 587.987 2016.01 720.827 2016.01 854.095C2042.15 854.095 2067.93 854.095 2094.47 854.095C2094.47 750.101 2094.47 646.601 2094.47 542.952C2097.83 542.952 2100.44 542.952 2103.27 542.952C2151.33 646.743 2199.29 750.333 2247.29 854.006C2292.99 854.006 2338.45 854.006 2383.67 854.006C2383.67 720.304 2383.67 587.189 2383.67 454.284C2357.48 454.284 2331.95 454.284 2305.66 454.284C2305.66 513.682 2305.66 572.591 2305.66 633.5ZM3473.52 903.865C3470.33 909.888 3471.22 915.348 3475.7 920.383C3479.3 924.431 3484.07 923.796 3488.7 923.796C3672.33 923.794 3855.95 923.737 4039.57 923.949C4049.47 923.961 4056.99 920.778 4063.18 913.497C4064.89 911.477 4066.48 909.345 4068.28 907.406C4094.99 878.664 4121.73 849.96 4148.42 821.215C4155.43 813.669 4162.4 806.079 4169.24 798.389C4173.25 793.885 4174.7 788.99 4172.38 782.811C4170.06 776.623 4165.13 775.499 4159.84 774.667C4157.24 774.258 4154.52 774.584 4151.85 774.584C3971.9 774.584 3791.94 774.692 3611.98 774.381C3597.4 774.356 3586.81 779.341 3577.37 790.136C3559.67 810.39 3541.14 829.919 3522.93 849.73C3506.74 867.347 3490.51 884.937 3473.52 903.865ZM4171.48 695.119C4175.42 688.278 4173.53 682.453 4168.44 677.106C4163.16 671.566 4157.94 665.973 4152.73 660.367C4122.63 627.952 4092.39 595.655 4062.54 563.009C4055.7 555.528 4048.18 552.438 4038.07 552.448C3854.42 552.642 3670.78 552.589 3487.14 552.59C3484.8 552.59 3482.46 552.437 3480.14 552.625C3474.16 553.111 3470.48 556.723 3469.71 562.66C3468.93 568.669 3470.82 573.478 3475.12 577.954C3489.87 593.307 3504.36 608.915 3518.84 624.516C3539.41 646.664 3560 668.793 3580.34 691.148C3586.63 698.055 3593.69 700.776 3603.16 700.764C3787.47 700.531 3971.78 700.591 4156.09 700.591C4158.09 700.591 4160.25 701.076 4162.05 700.48C4165.01 699.501 4167.74 697.82 4171.48 695.119ZM4145.58 381.09C4153.23 372.782 4160.83 364.442 4168.53 356.178C4172.92 351.451 4174.93 346.356 4172.41 339.901C4169.67 332.896 4164.2 332.503 4157.78 332.507C3972.85 332.609 3787.92 332.622 3602.99 332.474C3595.4 332.468 3589.46 334.7 3584.45 340.2C3576.62 348.806 3568.72 357.35 3560.79 365.872C3538.39 389.97 3515.92 414.021 3493.54 438.142C3487.44 444.712 3481.39 451.337 3475.59 458.167C3469.64 465.165 3470.5 474.93 3477.82 478.841C3481.04 480.566 3485.45 480.525 3489.33 480.526C3672.59 480.6 3855.85 480.51 4039.11 480.795C4049.87 480.812 4057.42 476.993 4064.31 469.435C4090.96 440.215 4117.81 411.188 4145.58 381.09ZM6111.92 483.55C6103.03 477.851 6094.55 471.34 6085.17 466.621C6064.52 456.235 6041.92 454.005 6019.25 453.883C5960.62 453.566 5901.99 453.769 5843.36 453.798C5840.47 453.8 5837.59 454.119 5834.72 454.289C5834.72 587.92 5834.72 720.745 5834.72 854.223C5836.93 854.36 5838.85 854.581 5840.77 854.581C5904.4 854.599 5968.03 854.956 6031.66 854.323C6046.1 854.179 6060.77 851.719 6074.86 848.331C6097.25 842.944 6116.52 831.597 6131.92 813.939C6146.4 797.336 6154.52 777.946 6157.28 756.482C6163.5 708.243 6144.88 667.555 6100.77 645.822C6095.47 643.211 6090.12 640.706 6084.05 637.8C6114.22 623.826 6134.77 602.307 6139.42 569.459C6143.94 537.474 6138.08 507.757 6111.92 483.55ZM5723.76 577.694C5704.47 516.326 5664.9 474.43 5603.35 454.936C5564.75 442.71 5525 441.519 5485.15 448.383C5410.98 461.157 5361.04 502.738 5337.96 574.744C5327.77 606.537 5324.85 639.386 5327.37 672.876C5328.62 689.467 5330.3 705.869 5334.3 721.965C5346.06 769.361 5371 807.764 5412.75 834.099C5445.1 854.505 5481.3 862.053 5518.92 863.706C5541.55 864.701 5564.04 862.856 5586.28 858.293C5621.33 851.103 5652.33 835.798 5677.78 810.643C5700.38 788.302 5715.63 761.25 5724.21 730.548C5731.95 702.848 5734.67 674.646 5733.81 645.912C5733.12 623.269 5730.49 601.028 5723.76 577.694ZM890.989 860.565C897.497 859.202 904.071 858.099 910.5 856.437C967.175 841.786 1007.95 808.22 1031.71 754.405C1042.43 730.138 1047.53 704.48 1049.49 678.302C1051.61 650.095 1050.2 621.934 1044.09 594.148C1033.6 546.44 1009.75 507.33 969.487 479.031C935.709 455.289 897.189 446.274 856.668 444.694C831.014 443.694 805.501 445.844 780.629 452.653C716.964 470.083 674.799 510.487 654.472 573.081C644.15 604.866 641.421 637.705 643.403 671.186C644.826 695.24 648.194 718.691 656.254 741.375C674.393 792.428 707.869 829.033 758.758 848.741C801.052 865.12 844.815 866.765 890.989 860.565ZM345.565 449.049C336.292 451.583 326.81 453.531 317.782 456.753C281.448 469.721 257.037 494.035 248.304 532.344C244.233 550.2 243.501 568.358 246.282 586.538C250.114 611.593 260.009 633.582 279.164 650.821C295.404 665.437 314.67 674.51 335.806 678.365C369.72 684.551 403.888 689.37 437.989 694.5C449.313 696.203 459.884 699.276 469.416 705.922C493.795 722.917 492.395 755.386 479.161 771.205C470.834 781.158 459.289 785.757 447.151 788.166C420.865 793.382 394.316 793.73 368.068 788.206C340.514 782.407 322.341 766.474 317.645 737.502C317.282 735.266 316.331 733.124 315.731 731.187C288.559 731.187 261.706 731.187 233.936 731.187C234.555 738.058 234.98 744.264 235.69 750.438C241.078 797.275 264.233 830.829 308.684 848.845C334.328 859.239 361.205 862.645 388.451 863.627C403.364 864.164 418.378 863.54 433.276 862.468C455.839 860.844 478.083 857.17 499.225 848.548C532.312 835.054 554.07 811.634 561.36 776.195C565.95 753.879 566.33 731.22 561.503 708.93C554.807 678.007 537.71 654.621 508.888 640.3C496.555 634.173 483.618 630.025 470.147 627.923C439.702 623.173 409.166 619.013 378.683 614.505C367.556 612.859 356.321 611.55 346.156 606.077C327.598 596.087 319.143 579.626 320.53 560.28C321.951 540.45 334.016 528.319 352.45 522.608C377.03 514.994 402.011 514.846 427.178 519.695C451.863 524.45 466.019 539.694 471.751 563.584C472.821 568.042 473.812 572.518 474.909 577.289C501.722 577.289 528.235 577.289 555.656 577.289C555.656 573.566 556.088 570.245 555.578 567.076C553.789 555.971 552.52 544.684 549.529 533.889C540.233 500.345 520.198 475.532 488.147 460.855C462.904 449.296 436.043 445.877 408.759 444.637C388.125 443.699 367.641 445.852 345.565 449.049ZM1878.96 728.529C1848.42 636.938 1817.88 545.346 1787.52 454.271C1738.89 454.271 1691.66 454.271 1644.06 454.271C1599.77 587.634 1555.6 720.672 1511.2 854.361C1538.97 854.361 1565.25 854.361 1592.05 854.361C1603.12 821.261 1614.18 788.19 1625.29 754.968C1685.1 754.968 1744.32 754.968 1804.36 754.968C1815.41 787.975 1826.52 821.16 1837.54 854.078C1865.5 854.078 1892.65 854.078 1920.69 854.078C1906.84 812.221 1893.24 771.095 1878.96 728.529ZM2840.96 710.53C2812.41 624.902 2783.86 539.275 2755.54 454.351C2706.77 454.351 2659.55 454.351 2612.1 454.351C2567.78 587.763 2523.61 720.738 2479.22 854.354C2506.94 854.354 2533.22 854.354 2560.05 854.354C2571.12 821.28 2582.18 788.203 2593.29 754.97C2653.1 754.97 2712.33 754.97 2772.36 754.97C2783.42 788.008 2794.54 821.2 2805.53 854.042C2833.53 854.042 2860.67 854.042 2888.69 854.042C2872.83 806.178 2857.24 759.074 2840.96 710.53ZM7131 785.791C7106.77 785.791 7082.54 785.791 7058.22 785.791C7058.22 750.857 7058.22 717.043 7058.22 682.29C7124.21 682.29 7189.65 682.29 7255.2 682.29C7255.2 659.824 7255.2 638.307 7255.2 615.752C7189.29 615.752 7123.83 615.752 7058.2 615.752C7058.2 584.228 7058.2 553.749 7058.2 522.335C7129.49 522.335 7200.27 522.335 7271.22 522.335C7271.22 499.212 7271.22 477.029 7271.22 454.321C7173.36 454.321 7075.94 454.321 6978.15 454.321C6978.15 587.747 6978.15 720.823 6978.15 854.006C7077.06 854.006 7175.49 854.006 7273.64 854.006C7273.64 830.944 7273.64 808.473 7273.64 785.791C7226.29 785.791 7179.65 785.791 7131 785.791ZM6353 453.789C6317.76 453.789 6282.52 453.789 6246.94 453.789C6246.94 477.863 6246.94 500.97 6246.94 524.943C6273.37 524.943 6299.21 524.943 6324.96 524.943C6324.96 611.566 6324.96 697.317 6324.96 784.15C6298.49 784.15 6272.71 784.15 6246.8 784.15C6246.8 808.081 6246.8 830.921 6246.8 854.116C6326.08 854.116 6404.87 854.116 6483.75 854.116C6483.75 830.507 6483.75 807.378 6483.75 783.538C6457.62 783.538 6432.07 783.538 6406.11 783.538C6406.11 697.017 6406.11 611.215 6406.11 524.427C6432.33 524.427 6458.13 524.427 6483.65 524.427C6483.65 500.292 6483.65 477.148 6483.65 453.789C6440.31 453.789 6397.65 453.789 6353 453.789ZM6831 782.582C6780.11 782.582 6729.21 782.582 6677.76 782.582C6677.76 672.712 6677.76 563.81 6677.76 454.386C6650.39 454.386 6623.58 454.386 6596.75 454.386C6596.75 587.884 6596.75 720.769 6596.75 853.591C6609.73 855.49 6870.34 854.963 6877.2 853.117C6877.2 829.879 6877.2 806.674 6877.2 782.582C6862.16 782.582 6847.58 782.582 6831 782.582ZM1231.68 499.5C1231.68 484.575 1231.68 469.65 1231.68 453.956C1204.17 453.802 1177.42 453.375 1150.82 454.175C1150.82 588.144 1150.82 720.978 1150.82 854.119C1244.77 854.119 1338.23 854.119 1431.82 854.119C1431.82 830.181 1431.82 806.726 1431.82 782.303C1364.87 782.303 1298.43 782.303 1231.68 782.303C1231.68 688.054 1231.68 594.777 1231.68 499.5Z" fill="#0E0F11"/>
<path d="M5081.54 815.949C5078.46 828.986 5075.56 841.205 5072.53 853.965C5033.81 853.965 4995.3 853.965 4955.24 853.965C4931.48 750.779 4907.57 646.979 4883.62 542.989C4877.72 542.989 4872.52 542.989 4866.8 542.989C4866.8 560.929 4866.75 578.483 4866.84 596.036C4866.86 599.662 4867.61 603.283 4867.63 606.908C4867.91 655.888 4867.93 704.869 4868.41 753.847C4868.71 785.444 4869.67 817.035 4870.33 848.629C4870.37 850.245 4870.34 851.863 4870.34 854.036C4844.07 854.036 4818.28 854.036 4792.08 854.036C4792.08 720.927 4792.08 588.074 4792.08 454.504C4840.81 454.504 4889.56 454.504 4938.85 454.504C4962.26 556.158 4985.67 657.801 5009.22 760.081C5012.08 760.233 5014.91 760.384 5018.49 760.574C5041.99 658.483 5065.4 556.821 5088.96 454.492C5137.75 454.492 5186.55 454.492 5235.85 454.492C5235.85 587.388 5235.85 720.274 5235.85 853.877C5210.41 853.877 5184.63 853.877 5157.67 853.877C5157.67 846.608 5157.59 839.077 5157.7 831.55C5157.79 824.904 5158.24 818.263 5158.31 811.618C5158.79 764.353 5159.2 717.087 5159.67 669.821C5159.85 651.844 5160.04 633.867 5160.35 615.893C5160.71 594.948 5161.23 574.006 5161.65 553.063C5161.72 549.814 5161.66 546.562 5161.66 542.975C5155.43 542.975 5150.2 542.975 5144.23 542.975C5140.73 558.084 5137.19 573.177 5133.72 588.285C5120.89 644.178 5108.07 700.075 5095.26 755.973C5090.74 775.69 5086.24 795.412 5081.54 815.949Z" fill="#FEFEFE"/>
<path d="M2305.66 632.5C2305.66 572.591 2305.66 513.681 2305.66 454.284C2331.95 454.284 2357.48 454.284 2383.67 454.284C2383.67 587.189 2383.67 720.304 2383.67 854.006C2338.45 854.006 2292.99 854.006 2247.3 854.006C2199.29 750.333 2151.33 646.743 2103.27 542.952C2100.44 542.952 2097.83 542.952 2094.47 542.952C2094.47 646.601 2094.47 750.101 2094.47 854.094C2067.93 854.094 2042.15 854.094 2016.01 854.094C2016.01 720.827 2016.01 587.987 2016.01 454.47C2061.56 454.47 2106.99 454.47 2153.05 454.47C2162.58 474.939 2172.31 495.621 2181.86 516.389C2200.16 556.209 2218.29 596.112 2236.62 635.917C2255.65 677.23 2274.99 718.406 2293.8 759.817C2296.32 765.361 2299.23 766.744 2305.66 764.793C2305.66 721.247 2305.66 677.373 2305.66 632.5Z" fill="#FEFEFE"/>
<path d="M3473.91 903.202C3490.51 884.937 3506.74 867.347 3522.93 849.73C3541.14 829.92 3559.67 810.39 3577.37 790.136C3586.81 779.341 3597.4 774.356 3611.98 774.381C3791.94 774.692 3971.9 774.584 4151.85 774.584C4154.52 774.584 4157.24 774.259 4159.84 774.667C4165.13 775.499 4170.06 776.623 4172.38 782.811C4174.7 788.99 4173.25 793.886 4169.24 798.389C4162.4 806.079 4155.43 813.669 4148.42 821.215C4121.73 849.96 4094.99 878.665 4068.28 907.406C4066.48 909.345 4064.89 911.478 4063.18 913.497C4056.99 920.778 4049.47 923.961 4039.57 923.949C3855.95 923.737 3672.33 923.794 3488.7 923.796C3484.07 923.796 3479.3 924.431 3475.7 920.383C3471.22 915.348 3470.33 909.888 3473.91 903.202Z" fill="#FDFDFD"/>
<path d="M4171.02 695.777C4167.74 697.82 4165.01 699.501 4162.05 700.48C4160.25 701.076 4158.09 700.591 4156.09 700.591C3971.78 700.591 3787.47 700.531 3603.16 700.764C3593.69 700.776 3586.63 698.055 3580.35 691.148C3560 668.793 3539.41 646.664 3518.84 624.516C3504.36 608.915 3489.87 593.307 3475.12 577.954C3470.82 573.478 3468.93 568.669 3469.71 562.66C3470.48 556.723 3474.16 553.111 3480.14 552.625C3482.46 552.436 3484.8 552.59 3487.14 552.59C3670.78 552.589 3854.42 552.642 4038.07 552.448C4048.18 552.438 4055.7 555.528 4062.54 563.009C4092.39 595.655 4122.63 627.952 4152.73 660.367C4157.94 665.973 4163.16 671.566 4168.44 677.106C4173.53 682.453 4175.42 688.278 4171.02 695.777Z" fill="#FEFFFF"/>
<path d="M4145.08 381.589C4117.81 411.188 4090.96 440.215 4064.31 469.435C4057.42 476.993 4049.87 480.812 4039.11 480.795C3855.85 480.51 3672.59 480.601 3489.33 480.527C3485.45 480.525 3481.04 480.567 3477.82 478.841C3470.5 474.93 3469.64 465.165 3475.59 458.167C3481.39 451.337 3487.44 444.712 3493.54 438.142C3515.92 414.021 3538.39 389.97 3560.79 365.872C3568.72 357.35 3576.62 348.806 3584.45 340.2C3589.46 334.7 3595.4 332.468 3602.99 332.474C3787.92 332.622 3972.85 332.609 4157.78 332.507C4164.2 332.504 4169.67 332.896 4172.41 339.901C4174.93 346.356 4172.92 351.451 4168.53 356.178C4160.83 364.442 4153.23 372.782 4145.08 381.589Z" fill="#FEFFFF"/>
<path d="M6112.42 484.055C6138.08 507.757 6143.94 537.474 6139.42 569.459C6134.77 602.307 6114.22 623.826 6084.05 637.8C6090.12 640.706 6095.47 643.211 6100.77 645.822C6144.88 667.555 6163.5 708.243 6157.28 756.482C6154.52 777.946 6146.4 797.336 6131.92 813.939C6116.52 831.597 6097.25 842.944 6074.86 848.33C6060.77 851.719 6046.1 854.179 6031.66 854.323C5968.03 854.956 5904.4 854.599 5840.77 854.581C5838.85 854.581 5836.93 854.359 5834.72 854.223C5834.72 720.745 5834.72 587.92 5834.72 454.289C5837.59 454.119 5840.47 453.8 5843.36 453.798C5901.99 453.769 5960.62 453.566 6019.25 453.883C6041.92 454.005 6064.52 456.235 6085.17 466.621C6094.55 471.339 6103.03 477.851 6112.42 484.055ZM6077.91 756.222C6078.04 742.578 6078.43 728.929 6078.16 715.292C6078.07 711.112 6076.8 706.683 6075.03 702.853C6066.68 684.813 6052.36 675.785 6032.43 675.781C5995.47 675.773 5958.5 675.768 5921.54 675.807C5919.34 675.809 5917.14 676.208 5914.75 676.442C5914.75 714.968 5914.75 752.794 5914.75 791.799C5918.71 791.799 5922.27 791.799 5925.83 791.799C5960.46 791.799 5995.11 791.294 6029.73 791.986C6050.82 792.409 6070.99 781.419 6077.91 756.222ZM5914.33 555.501C5914.33 575.021 5914.33 594.541 5914.33 614.558C5951.78 614.558 5988.04 615.074 6024.28 614.341C6042.6 613.97 6058.03 599.813 6061.09 582.064C6062.37 574.619 6061.24 566.791 6061.72 559.169C6063.27 534.491 6042.07 517.085 6020.85 517.585C5988.57 518.345 5956.26 517.773 5923.97 517.803C5921.06 517.805 5918.14 518.074 5914.33 518.264C5914.33 530.354 5914.33 541.928 5914.33 555.501Z" fill="#FDFDFD"/>
<path d="M5723.99 578.473C5730.49 601.028 5733.12 623.269 5733.81 645.912C5734.67 674.646 5731.95 702.848 5724.21 730.548C5715.63 761.25 5700.37 788.302 5677.78 810.643C5652.33 835.798 5621.33 851.103 5586.28 858.293C5564.04 862.856 5541.55 864.701 5518.92 863.706C5481.3 862.053 5445.1 854.505 5412.75 834.099C5371 807.764 5346.06 769.361 5334.3 721.965C5330.3 705.869 5328.62 689.467 5327.37 672.876C5324.85 639.386 5327.77 606.537 5337.96 574.744C5361.04 502.738 5410.98 461.157 5485.15 448.383C5525 441.519 5564.75 442.71 5603.35 454.936C5664.9 474.43 5704.47 516.326 5723.99 578.473ZM5414.12 612.164C5413.97 635.811 5413.56 659.461 5413.8 683.105C5413.89 692.35 5414.52 701.784 5416.5 710.78C5423.86 744.171 5442.94 768.477 5475 781.288C5510.36 795.42 5546.31 795.903 5581.98 782.503C5621.87 767.517 5644.61 731.669 5646.14 692.121C5647.12 666.832 5647.04 641.449 5646.17 616.152C5644.68 572.762 5620.01 538.31 5578.85 524.374C5550.7 514.842 5522.16 514.047 5493.5 521.154C5448.51 532.307 5419.86 564.861 5414.12 612.164Z" fill="#FDFDFD"/>
<path d="M890.107 860.581C844.815 866.765 801.052 865.12 758.758 848.741C707.868 829.033 674.393 792.428 656.254 741.375C648.193 718.691 644.826 695.24 643.402 671.186C641.421 637.704 644.15 604.866 654.472 573.08C674.799 510.487 716.963 470.082 780.629 452.653C805.5 445.844 831.013 443.694 856.668 444.694C897.188 446.274 935.709 455.289 969.487 479.031C1009.75 507.33 1033.6 546.439 1044.09 594.148C1050.2 621.934 1051.61 650.094 1049.49 678.302C1047.53 704.48 1042.43 730.138 1031.71 754.405C1007.95 808.219 967.175 841.786 910.5 856.437C904.071 858.099 897.496 859.202 890.107 860.581ZM736.309 584.254C731.418 598.874 729.224 613.831 729.575 629.302C729.983 647.28 729.399 665.28 729.785 683.259C729.976 692.175 730.566 701.233 732.373 709.937C739.506 744.283 759.394 768.736 791.949 781.792C821.77 793.752 852.731 795.103 883.818 787.19C934.346 774.327 962.895 733.208 962.37 685.299C962.133 663.65 962.549 641.993 962.215 620.347C962.093 612.445 961.39 604.402 959.694 596.7C952.041 561.962 931.304 537.911 898.128 525.452C871.793 515.562 844.508 514.108 816.808 519.566C801.604 522.562 787.502 528.003 774.51 536.36C756.88 547.701 744.965 563.704 736.309 584.254Z" fill="#FDFDFD"/>
<path d="M346.393 448.833C367.641 445.852 388.125 443.699 408.759 444.637C436.043 445.877 462.904 449.296 488.147 460.855C520.198 475.532 540.233 500.345 549.529 533.889C552.52 544.684 553.789 555.971 555.578 567.076C556.088 570.245 555.656 573.566 555.656 577.289C528.235 577.289 501.722 577.289 474.909 577.289C473.812 572.518 472.821 568.042 471.751 563.584C466.019 539.694 451.863 524.45 427.178 519.695C402.011 514.846 377.029 514.994 352.45 522.608C334.016 528.319 321.951 540.449 320.53 560.279C319.143 579.626 327.598 596.087 346.156 606.077C356.321 611.55 367.556 612.859 378.683 614.504C409.166 619.013 439.702 623.173 470.147 627.923C483.618 630.025 496.555 634.173 508.887 640.3C537.71 654.621 554.807 678.007 561.503 708.93C566.33 731.22 565.95 753.879 561.36 776.195C554.07 811.634 532.312 835.053 499.225 848.547C478.083 857.17 455.839 860.844 433.276 862.467C418.378 863.54 403.364 864.164 388.451 863.626C361.205 862.645 334.328 859.238 308.684 848.845C264.233 830.828 241.078 797.275 235.69 750.438C234.98 744.264 234.555 738.058 233.936 731.187C261.706 731.187 288.559 731.187 315.731 731.187C316.331 733.124 317.282 735.266 317.645 737.502C322.341 766.473 340.514 782.407 368.068 788.206C394.316 793.73 420.865 793.382 447.15 788.166C459.289 785.757 470.834 781.158 479.161 771.205C492.395 755.386 493.795 722.917 469.416 705.922C459.884 699.276 449.313 696.203 437.989 694.5C403.888 689.37 369.72 684.551 335.806 678.365C314.67 674.51 295.404 665.437 279.164 650.821C260.009 633.582 250.114 611.593 246.282 586.538C243.501 568.358 244.233 550.2 248.304 532.343C257.037 494.035 281.448 469.721 317.782 456.753C326.81 453.531 336.292 451.582 346.393 448.833Z" fill="#FDFDFD"/>
<path d="M1879.3 729.25C1893.24 771.095 1906.84 812.221 1920.69 854.078C1892.65 854.078 1865.5 854.078 1837.54 854.078C1826.52 821.16 1815.41 787.975 1804.36 754.968C1744.32 754.968 1685.1 754.968 1625.29 754.968C1614.18 788.19 1603.12 821.261 1592.05 854.361C1565.25 854.361 1538.97 854.361 1511.2 854.361C1555.6 720.672 1599.77 587.634 1644.06 454.271C1691.66 454.271 1738.89 454.271 1787.52 454.271C1817.88 545.346 1848.42 636.938 1879.3 729.25ZM1743 685.813C1755.22 685.813 1767.45 685.813 1781.36 685.813C1764.07 633.911 1747.2 583.262 1730.46 533.025C1719.16 533.025 1708.91 533.025 1698.84 533.025C1681.92 583.855 1665.15 634.231 1647.97 685.813C1679.9 685.813 1710.45 685.813 1743 685.813Z" fill="#FEFEFE"/>
<path d="M2841.3 711.25C2857.24 759.074 2872.83 806.178 2888.69 854.042C2860.67 854.042 2833.53 854.042 2805.53 854.042C2794.54 821.2 2783.42 788.008 2772.36 754.97C2712.33 754.97 2653.1 754.97 2593.29 754.97C2582.18 788.203 2571.12 821.28 2560.05 854.354C2533.22 854.354 2506.94 854.354 2479.22 854.354C2523.61 720.738 2567.78 587.763 2612.1 454.351C2659.55 454.351 2706.77 454.351 2755.54 454.351C2783.86 539.275 2812.41 624.902 2841.3 711.25ZM2745.77 685.765C2750.97 683.495 2747.39 680.339 2746.48 677.608C2734.63 641.798 2722.73 606.007 2710.82 570.216C2706.66 557.707 2702.46 545.212 2698.37 532.989C2687.24 532.989 2676.98 532.989 2666.86 532.989C2649.94 583.794 2633.16 634.191 2615.97 685.808C2659.55 685.808 2701.76 685.808 2745.77 685.765Z" fill="#FEFEFE"/>
<path d="M7132 785.791C7179.65 785.791 7226.29 785.791 7273.64 785.791C7273.64 808.473 7273.64 830.944 7273.64 854.006C7175.49 854.006 7077.06 854.006 6978.15 854.006C6978.15 720.823 6978.15 587.747 6978.15 454.321C7075.94 454.321 7173.36 454.321 7271.22 454.321C7271.22 477.029 7271.22 499.212 7271.22 522.335C7200.27 522.335 7129.49 522.335 7058.2 522.335C7058.2 553.749 7058.2 584.228 7058.2 615.752C7123.83 615.752 7189.29 615.752 7255.2 615.752C7255.2 638.306 7255.2 659.824 7255.2 682.289C7189.65 682.289 7124.21 682.289 7058.22 682.289C7058.22 717.043 7058.22 750.857 7058.22 785.791C7082.54 785.791 7106.77 785.791 7132 785.791Z" fill="#FEFEFE"/>
<path d="M6354 453.789C6397.65 453.789 6440.31 453.789 6483.65 453.789C6483.65 477.148 6483.65 500.292 6483.65 524.427C6458.13 524.427 6432.33 524.427 6406.11 524.427C6406.11 611.215 6406.11 697.017 6406.11 783.538C6432.07 783.538 6457.62 783.538 6483.75 783.538C6483.75 807.378 6483.75 830.507 6483.75 854.116C6404.87 854.116 6326.08 854.116 6246.8 854.116C6246.8 830.921 6246.8 808.081 6246.8 784.15C6272.71 784.15 6298.49 784.15 6324.96 784.15C6324.96 697.317 6324.96 611.566 6324.96 524.943C6299.21 524.943 6273.37 524.943 6246.94 524.943C6246.94 500.97 6246.94 477.863 6246.94 453.789C6282.52 453.789 6317.76 453.789 6354 453.789Z" fill="#FEFEFE"/>
<path d="M6832 782.582C6847.58 782.582 6862.16 782.582 6877.2 782.582C6877.2 806.674 6877.2 829.879 6877.2 853.117C6870.34 854.964 6609.73 855.49 6596.75 853.591C6596.75 720.77 6596.75 587.885 6596.75 454.386C6623.58 454.386 6650.39 454.386 6677.76 454.386C6677.76 563.81 6677.76 672.712 6677.76 782.582C6729.21 782.582 6780.11 782.582 6832 782.582Z" fill="#FCFDFD"/>
<path d="M1231.68 500.5C1231.68 594.777 1231.68 688.053 1231.68 782.303C1298.43 782.303 1364.87 782.303 1431.82 782.303C1431.82 806.726 1431.82 830.181 1431.82 854.118C1338.23 854.118 1244.77 854.118 1150.82 854.118C1150.82 720.978 1150.82 588.144 1150.82 454.175C1177.42 453.375 1204.17 453.802 1231.68 453.956C1231.68 469.65 1231.68 484.575 1231.68 500.5Z" fill="#FCFDFD"/>
<path d="M6077.74 757.069C6070.99 781.419 6050.82 792.408 6029.73 791.986C5995.11 791.294 5960.46 791.799 5925.83 791.799C5922.27 791.799 5918.71 791.799 5914.75 791.799C5914.75 752.794 5914.75 714.968 5914.75 676.442C5917.14 676.208 5919.34 675.809 5921.54 675.807C5958.5 675.768 5995.47 675.773 6032.43 675.781C6052.36 675.785 6066.68 684.812 6075.03 702.853C6076.8 706.683 6078.07 711.111 6078.16 715.292C6078.43 728.929 6078.04 742.578 6077.74 757.069Z" fill="#0E0F11"/>
<path d="M5914.33 554.502C5914.33 541.928 5914.33 530.354 5914.33 518.264C5918.14 518.074 5921.06 517.805 5923.97 517.803C5956.26 517.773 5988.57 518.345 6020.85 517.585C6042.07 517.085 6063.27 534.491 6061.72 559.169C6061.24 566.791 6062.37 574.619 6061.09 582.064C6058.03 599.813 6042.6 613.97 6024.28 614.341C5988.04 615.075 5951.78 614.558 5914.33 614.558C5914.33 594.541 5914.33 575.021 5914.33 554.502Z" fill="#0E0F11"/>
<path d="M5414.22 611.247C5419.86 564.861 5448.51 532.307 5493.5 521.154C5522.16 514.047 5550.7 514.842 5578.85 524.374C5620.01 538.31 5644.68 572.763 5646.17 616.152C5647.04 641.45 5647.12 666.832 5646.15 692.121C5644.61 731.669 5621.87 767.517 5581.98 782.503C5546.31 795.903 5510.36 795.42 5475 781.288C5442.94 768.477 5423.86 744.171 5416.5 710.78C5414.52 701.784 5413.89 692.35 5413.8 683.105C5413.56 659.461 5413.97 635.811 5414.22 611.247Z" fill="#0E0F11"/>
<path d="M736.603 583.529C744.966 563.704 756.881 547.701 774.511 536.36C787.503 528.003 801.605 522.562 816.808 519.566C844.508 514.108 871.794 515.562 898.128 525.452C931.305 537.911 952.042 561.962 959.694 596.7C961.391 604.402 962.093 612.445 962.215 620.347C962.549 641.993 962.133 663.65 962.37 685.299C962.895 733.208 934.347 774.327 883.819 787.19C852.731 795.103 821.771 793.752 791.95 781.793C759.394 768.736 739.507 744.283 732.373 709.937C730.566 701.233 729.977 692.175 729.785 683.26C729.399 665.28 729.983 647.28 729.575 629.302C729.224 613.831 731.418 598.874 736.603 583.529Z" fill="#0E0F11"/>
<path d="M1742 685.813C1710.45 685.813 1679.9 685.813 1647.97 685.813C1665.15 634.231 1681.92 583.855 1698.84 533.025C1708.91 533.025 1719.16 533.025 1730.46 533.025C1747.2 583.262 1764.07 633.911 1781.36 685.813C1767.45 685.813 1755.22 685.813 1742 685.813Z" fill="#0E0F11"/>
<path d="M2744.87 685.787C2701.76 685.808 2659.55 685.808 2615.97 685.808C2633.16 634.191 2649.94 583.794 2666.86 532.989C2676.98 532.989 2687.24 532.989 2698.37 532.989C2702.46 545.212 2706.66 557.708 2710.82 570.216C2722.73 606.007 2734.63 641.799 2746.48 677.608C2747.39 680.339 2750.97 683.495 2744.87 685.787Z" fill="#0E0F11"/>
</g>
<defs>
<clipPath id="clip0_20099_30">
<rect width="7501" height="1251" fill="white" transform="translate(0 0.5)"/>
</clipPath>
</defs>
</svg>
